<svg xmlns="http://www.w3.org/2000/svg" width="95.328" height="32" viewBox="0 0 95.328 32">
  <path id="Path_28" data-name="Path 28" d="M6.243-31.13a4.1,4.1,0,0,1-2.907-1.048,3.4,3.4,0,0,1-1.127-2.591A3.441,3.441,0,0,1,3.335-37.4a4.1,4.1,0,0,1,2.907-1.048A4.046,4.046,0,0,1,9.11-37.4a3.441,3.441,0,0,1,1.127,2.63A3.4,3.4,0,0,1,9.11-32.179,4.046,4.046,0,0,1,6.243-31.13ZM9.6-28.836V-6.764H2.841V-28.836Zm25.711,10.68a17.267,17.267,0,0,1-.119,1.978H19.889a4.6,4.6,0,0,0,1.325,3.145,4.048,4.048,0,0,0,2.868,1.088,3.555,3.555,0,0,0,3.52-2.136h7.2a9.879,9.879,0,0,1-2,3.916,10,10,0,0,1-3.619,2.729,11.625,11.625,0,0,1-4.865.989,11.839,11.839,0,0,1-5.775-1.384,9.847,9.847,0,0,1-3.955-3.956A12.212,12.212,0,0,1,13.165-17.8a12.351,12.351,0,0,1,1.4-6.012A9.72,9.72,0,0,1,18.5-27.768a11.922,11.922,0,0,1,5.815-1.384,11.8,11.8,0,0,1,5.7,1.345,9.657,9.657,0,0,1,3.9,3.837A11.646,11.646,0,0,1,35.316-18.156Zm-6.922-1.78a3.478,3.478,0,0,0-1.187-2.769,4.368,4.368,0,0,0-2.967-1.028,4.284,4.284,0,0,0-2.868.989,4.392,4.392,0,0,0-1.444,2.808Zm17.246-16.1V-6.764H38.875V-36.035ZM60.591-6.448a12.183,12.183,0,0,1-5.834-1.384,10.137,10.137,0,0,1-4.074-3.956A11.819,11.819,0,0,1,49.2-17.8a11.724,11.724,0,0,1,1.5-5.993,10.2,10.2,0,0,1,4.114-3.975,12.3,12.3,0,0,1,5.854-1.384,12.3,12.3,0,0,1,5.854,1.384,10.2,10.2,0,0,1,4.114,3.975,11.724,11.724,0,0,1,1.5,5.993,11.6,11.6,0,0,1-1.523,5.993,10.3,10.3,0,0,1-4.153,3.975A12.416,12.416,0,0,1,60.591-6.448Zm0-5.854a4.406,4.406,0,0,0,3.3-1.424A5.657,5.657,0,0,0,65.259-17.8a5.762,5.762,0,0,0-1.325-4.074A4.282,4.282,0,0,0,60.67-23.3a4.293,4.293,0,0,0-3.283,1.4A5.805,5.805,0,0,0,56.082-17.8a5.876,5.876,0,0,0,1.286,4.074A4.161,4.161,0,0,0,60.591-12.3ZM97.536-28.836V-6.764H90.772V-9.771a7.423,7.423,0,0,1-2.789,2.354,8.51,8.51,0,0,1-3.9.89,8.727,8.727,0,0,1-4.47-1.127,7.6,7.6,0,0,1-3.006-3.263,11.105,11.105,0,0,1-1.068-5.023V-28.836h6.724v11.985a4.844,4.844,0,0,0,1.147,3.441A4.022,4.022,0,0,0,86.5-12.183a4.072,4.072,0,0,0,3.125-1.226,4.844,4.844,0,0,0,1.147-3.441V-28.836Z" transform="translate(-2.208 38.448)" fill="#6a9a8f"/>
</svg>
